<svg width="387" height="387" viewBox="0 0 387 387" fill="none" xmlns="http://www.w3.org/2000/svg">
<rect width="387" height="387" fill="black"/>
<path d="M124.973 213.089H117.62L115.9 217.705H113L119.555 200.519H123.036L129.593 217.705H126.687L124.971 213.089H124.973ZM123.983 210.462L121.299 203.27L118.612 210.462H123.983Z" fill="white"/>
<path d="M136.347 198.802H133.59V217.705H136.347V198.802Z" fill="white"/>
<path d="M149.24 203.983V206.807C148.999 206.782 148.778 206.759 148.417 206.759C145.924 206.759 144.016 208.182 144.016 211.521V217.707H141.283V204.203H144.016V206.882C144.814 204.992 146.338 203.912 148.442 203.912C148.778 203.912 149.046 203.937 149.24 203.985" fill="white"/>
<path d="M165.166 204.201V217.707H162.433V215.446C161.466 216.993 159.867 218 157.786 218C154.233 218 151.644 215.08 151.644 210.954C151.644 206.828 154.282 203.908 157.766 203.908C159.869 203.908 161.468 204.963 162.433 206.51V204.201H165.166ZM162.456 210.954C162.456 208.377 160.69 206.56 158.368 206.56C156.046 206.56 154.402 208.375 154.402 210.954C154.402 213.533 156.068 215.348 158.368 215.348C160.668 215.348 162.456 213.558 162.456 210.954Z" fill="white"/>
<path d="M190.155 209.039V217.707H187.422V209.629C187.422 207.617 186.624 206.562 184.784 206.562C182.631 206.562 181.521 208.254 181.521 210.709L181.544 217.707H178.788V209.629C178.788 207.617 177.99 206.562 176.151 206.562C173.997 206.562 172.908 208.254 172.908 210.709V217.707H170.176V204.203H172.908V206.363C173.826 204.816 175.134 203.908 177.044 203.908C179.077 203.908 180.503 204.913 181.158 206.732C182.052 204.99 183.551 203.908 185.657 203.908C188.462 203.908 190.155 205.823 190.155 209.039Z" fill="white"/>
<path d="M206.195 215.078V217.707H194.973V215.078L202.565 206.83H195.406V204.203H206.073V206.83L198.455 215.078H206.195Z" fill="white"/>
<path d="M236.063 185.987C239.425 187.118 242.715 188.35 245.928 189.673C249.14 188.35 252.428 187.119 255.786 185.989C258.996 187.503 262.126 189.11 265.172 190.8C265.385 188.933 265.598 187.062 265.811 185.193C262.669 183.374 259.442 181.645 256.124 180.008C252.648 181.248 249.246 182.589 245.928 184.028C242.608 182.589 239.206 181.246 235.726 180.006C232.404 181.643 229.168 183.374 226.023 185.191C226.251 187.058 226.483 188.925 226.711 190.792C229.748 189.102 232.866 187.499 236.065 185.985" fill="white"/>
<path d="M245.926 175.737C249.402 177.063 252.804 178.49 256.128 180.01C256.233 178.131 256.341 176.252 256.445 174.374C253.023 172.73 249.516 171.187 245.928 169.746C242.338 171.187 238.834 172.73 235.413 174.372C235.519 176.25 235.626 178.129 235.73 180.008C239.05 178.488 242.452 177.061 245.926 175.737Z" fill="white"/>
<path d="M236.852 199.9C233.906 201.514 231.046 203.212 228.275 204.986L228.955 210.588C231.62 208.942 234.364 207.372 237.188 205.879C239.117 206.624 241.004 207.418 242.87 208.236V217.707H248.944V208.252C250.82 207.43 252.715 206.63 254.651 205.883C255.558 206.36 256.455 206.846 257.346 207.337C259.239 208.389 261.096 209.475 262.915 210.595C263.127 208.726 263.34 206.857 263.553 204.99C260.788 203.216 257.933 201.518 254.993 199.904C251.89 201.163 248.868 202.517 245.924 203.956C242.981 202.517 239.953 201.161 236.85 199.902" fill="white"/>
<path d="M265.163 190.8C261.805 191.857 258.521 193.014 255.315 194.268C252.268 192.647 249.134 191.114 245.921 189.675C242.709 191.114 239.579 192.647 236.532 194.268C233.317 193.012 230.021 191.855 226.654 190.8C223.617 192.605 220.673 194.493 217.816 196.463C218.149 198.312 218.485 200.162 218.818 202.014C221.572 200.181 224.409 198.426 227.33 196.75C230.572 197.703 233.748 198.756 236.852 199.9C239.797 198.403 242.819 196.987 245.919 195.664C249.02 196.987 252.046 198.403 254.995 199.902C258.089 198.756 261.254 197.703 264.484 196.748C267.422 198.428 270.277 200.187 273.046 202.022C273.363 200.168 273.683 198.316 274 196.463C271.147 194.493 268.198 192.605 265.163 190.8Z" fill="white"/>
<path d="M117.156 172.553C118.2 172.553 118.774 171.934 118.774 170.807C118.774 169.681 118.2 169.052 117.156 169.052C116.113 169.052 115.539 169.675 115.539 170.807C115.539 171.94 116.115 172.553 117.156 172.553Z" fill="white"/>
<path d="M196.698 184.953H188.737C188.049 184.953 187.512 184.76 187.095 184.361C186.687 183.966 186.485 183.441 186.485 182.758V174.364H183.751V187.54C183.751 188.514 183.543 189.303 183.133 189.885C182.741 190.445 182.23 190.717 181.575 190.717H180.902V193.34H181.622C183.169 193.34 184.383 192.798 185.231 191.729C186.063 190.68 186.485 189.228 186.485 187.413V186.705C186.941 187.154 187.563 187.459 188.346 187.526C188.616 187.55 189.156 187.577 189.429 187.577H199.557V169H196.698V184.953Z" fill="white"/>
<path d="M206.195 169H203.335V187.577H206.195V169Z" fill="white"/>
<path d="M172.57 174.098C170.692 174.098 169.153 174.792 167.99 176.158C166.838 177.514 166.253 179.267 166.253 181.372C166.253 182.808 166.473 184.01 166.912 184.953H120.826C120.138 184.953 119.598 184.76 119.184 184.359C118.774 183.964 118.572 183.439 118.572 182.756V174.366H115.837V187.542C115.837 188.518 115.63 189.305 115.222 189.887C114.83 190.447 114.319 190.719 113.661 190.719H113V193.342H113.72C115.263 193.338 116.474 192.798 117.32 191.731C118.152 190.682 118.572 189.232 118.572 187.416V186.707C119.028 187.156 119.652 187.461 120.433 187.528C120.704 187.551 121.244 187.578 121.516 187.578H171.54C173.593 187.578 175.314 186.961 176.662 185.744C178.019 184.517 178.707 182.812 178.707 180.673C178.707 178.534 178.133 177.014 177.002 175.853C175.871 174.69 174.379 174.1 172.57 174.1M174.644 183.752C173.859 184.55 172.817 184.955 171.542 184.955H169.881C169.372 184.168 169.117 182.965 169.117 181.373C169.117 179.933 169.453 178.775 170.119 177.934C170.774 177.103 171.578 176.698 172.572 176.698C173.566 176.698 174.32 177.039 174.917 177.745C175.52 178.453 175.822 179.431 175.822 180.648C175.822 181.927 175.438 182.942 174.644 183.752Z" fill="white"/>
</svg>
