<svg width="37" height="36" viewBox="0 0 37 36" fill="none" xmlns="http://www.w3.org/2000/svg">
<g clip-path="url(#clip0_3057_11899)">
<path d="M10.4166 31.5C10.4166 29.679 9.97982 27.9105 9.14599 26.2969C8.99923 26.0128 8.81627 25.7496 8.61658 25.5H1.4165V25.875C2.39947 27.5952 2.9165 29.5188 2.9165 31.5H15.6665M23.1665 35.25H0.666504M23.9165 14.25C23.9165 12.4291 23.4799 10.6605 22.646 9.04689C22.4993 8.7629 22.3163 8.49961 22.1165 8.25H14.9165V8.625C15.8995 10.3452 16.4165 12.2688 16.4165 14.25H29.1665M36.6665 18H23.1665M22.4165 32.25V28.4999C22.4165 28.4999 20.1665 26.9999 16.4165 26.9999C14.9072 26.9999 13.6409 27.2428 12.6665 27.5332M35.9165 15V11.2498C35.9165 11.2498 33.6665 9.74988 29.9165 9.74988C28.4072 9.74988 27.1409 9.99287 26.1665 10.2833M16.1915 24C16.1915 24 13.7915 22.5 13.7915 20.625C13.7915 19.1753 14.9668 18 16.4165 18C17.8663 18 19.0351 19.1753 19.0351 20.625C19.0351 22.5 16.6415 24 16.6415 24H16.1915ZM29.6915 6.75C29.6915 6.75 27.2915 5.25 27.2915 3.375C27.2915 1.92525 28.4668 0.75 29.9165 0.75C31.3663 0.75 32.5351 1.92525 32.5351 3.375C32.5351 5.25 30.1415 6.75 30.1415 6.75H29.6915Z" stroke="#D85940"/>
</g>
<defs>
<clipPath id="clip0_3057_11899">
<rect width="36" height="36" fill="white" transform="translate(0.666504)"/>
</clipPath>
</defs>
</svg>
