<svg width="36" height="36" viewBox="0 0 36 36" fill="none" xmlns="http://www.w3.org/2000/svg">
<g id="area">
<path id="Vector" d="M34.5 1.5L21.6006 14.4006M34.5 1.5C34.082 1.91808 33.8133 2.69002 33.6468 3.38017C33.4247 4.30185 33.3843 5.25881 33.4911 6.20087C33.5741 6.93255 33.738 7.73808 34.0624 8.0625M34.5 1.5C34.0819 1.91804 33.3099 2.18674 32.6198 2.35311C31.6982 2.57532 30.7412 2.6157 29.7992 2.5089C29.0675 2.42595 28.262 2.26191 27.9375 1.93749M1.5 34.5L14.4006 21.6006M1.5 34.5C1.91805 34.0819 2.1867 33.31 2.3532 32.6198C2.57535 31.6981 2.6157 30.7412 2.5089 29.7991C2.42595 29.0674 2.262 28.2619 1.93755 27.9375M1.5 34.5C1.91807 34.082 2.69014 33.8133 3.38025 33.6469C4.30185 33.4247 5.25885 33.3843 6.20085 33.4911C6.93255 33.5741 7.73805 33.7381 8.0625 34.0625M1.5 1.5L14.4006 14.4006M1.5 1.5C1.91808 1.91805 2.69002 2.1867 3.38017 2.3532C4.30185 2.57535 5.25881 2.6157 6.20087 2.5089C6.93255 2.42595 7.73808 2.262 8.0625 1.93755M1.5 1.5C1.91804 1.91807 2.18674 2.69014 2.35311 3.38025C2.57532 4.30185 2.6157 5.25885 2.5089 6.20085C2.42595 6.93255 2.26191 7.73805 1.93749 8.0625M34.5 34.5L21.6006 21.6006M34.5 34.5C34.0819 34.082 33.31 33.8133 32.6198 33.6468C31.6981 33.4247 30.7412 33.3843 29.7991 33.4911C29.0674 33.5741 28.2619 33.738 27.9375 34.0624M34.5 34.5C34.082 34.0819 33.8133 33.3099 33.6469 32.6198C33.4247 31.6982 33.3843 30.7412 33.4911 29.7992C33.5741 29.0675 33.7381 28.262 34.0625 27.9375" stroke="#D85940"/>
</g>
</svg>
