<svg width="36" height="36" viewBox="0 0 36 36" fill="none" xmlns="http://www.w3.org/2000/svg">
<g clip-path="url(#clip0_3062_11927)">
<path d="M5.25 33V21.0582C5.25 17.0598 4.4507 13.1016 2.89907 9.41652L2.25 7.875V7.5H11.25M30.75 33V21.0582C30.75 17.0598 31.5494 13.1016 33.101 9.41652L33.75 7.875V7.5H24.75M24.75 33V20.25H11.25V33M36 35.25H0M18 20.25V33M11.25 0.75H24.75V13.25H11.25V0.75Z" stroke="#D85940"/>
<path d="M16.5981 6.32171C17.0768 6.48329 17.5452 6.65948 18.0028 6.84864C18.4602 6.65948 18.9283 6.48356 19.4065 6.32198C19.8635 6.53843 20.3092 6.76812 20.743 7.00967C20.7733 6.74276 20.8036 6.47529 20.834 6.2081C20.3866 5.94808 19.9271 5.70102 19.4547 5.46692C18.9597 5.64422 18.4753 5.83586 18.0028 6.04156C17.5301 5.83586 17.0457 5.64394 16.5502 5.46665C16.0772 5.70075 15.6163 5.94808 15.1685 6.20783C15.201 6.47474 15.234 6.74165 15.2664 7.00857C15.6989 6.76702 16.1429 6.53788 16.5984 6.32143" fill="#D85940"/>
<path d="M18.0026 4.85644C18.4975 5.04587 18.9819 5.24992 19.4552 5.4672C19.4701 5.19863 19.4855 4.93006 19.5004 4.66149C19.013 4.42657 18.5138 4.20598 18.0028 4C17.4917 4.20598 16.9927 4.42657 16.5056 4.66122C16.5207 4.92979 16.5359 5.19835 16.5508 5.46692C17.0235 5.24964 17.5079 5.04559 18.0026 4.85644Z" fill="#D85940"/>
<path d="M16.7104 8.3106C16.291 8.54139 15.8837 8.78404 15.4892 9.03771L15.586 9.83845C15.9654 9.60325 16.3562 9.3788 16.7583 9.16538C17.033 9.27181 17.3017 9.38542 17.5674 9.50233V10.8562H18.4323V9.50454C18.6994 9.38707 18.9692 9.27264 19.2449 9.16593C19.374 9.23404 19.5017 9.30352 19.6287 9.37384C19.8982 9.52411 20.1626 9.67935 20.4215 9.83956C20.4518 9.57237 20.4822 9.30518 20.5125 9.03827C20.1187 8.78459 19.7123 8.54194 19.2936 8.31115C18.8517 8.4912 18.4215 8.68477 18.0023 8.89047C17.5831 8.68477 17.152 8.49093 16.7101 8.31087" fill="#D85940"/>
<path d="M20.7417 7.00967C20.2635 7.16077 19.7959 7.32622 19.3394 7.50544C18.9056 7.27382 18.4594 7.05461 18.0018 6.84891C17.5444 7.05461 17.0987 7.27382 16.665 7.50544C16.2071 7.32594 15.7378 7.1605 15.2583 7.00967C14.8259 7.26776 14.4067 7.53771 14 7.81923C14.0474 8.08366 14.0953 8.3481 14.1426 8.6128C14.5347 8.35085 14.9387 8.09993 15.3547 7.86032C15.8163 7.99653 16.2685 8.14708 16.7104 8.3106C17.1299 8.09662 17.5601 7.89423 18.0015 7.70508C18.4431 7.89423 18.8739 8.09662 19.2939 8.31087C19.7345 8.14708 20.185 7.99653 20.6451 7.86004C21.0634 8.10021 21.4699 8.35168 21.8642 8.61391C21.9093 8.34892 21.9548 8.08422 22 7.81923C21.5938 7.53771 21.1738 7.26776 20.7417 7.00967Z" fill="#D85940"/>
</g>
<defs>
<clipPath id="clip0_3062_11927">
<rect width="36" height="36" fill="white"/>
</clipPath>
</defs>
</svg>
